<!--?xml version="1.0" encoding="UTF-8"?-->
<svg xmlns="http://www.w3.org/2000/svg" width="60" height="42" viewBox="0 0 60 42">
  <clipPath id="c">
    <rect width="60" height="42" rx="0" ry="0"></rect>
  </clipPath>

  <g clip-path="url(#c)">
    <rect width="60" height="42" fill="#012169"></rect>

    <!-- white diagonals -->
    <path d="M0,0 L6,0 L60,36 L60,42 L54,42 L0,6 Z" fill="#ffffff"></path>
    <path d="M60,0 L54,0 L0,36 L0,42 L6,42 L60,6 Z" fill="#ffffff"></path>

    <!-- red diagonals -->
    <path d="M0,0 L3.8,0 L60,37.2 L60,42 L56.2,42 L0,4.8 Z" fill="#C8102E"></path>
    <path d="M60,0 L56.2,0 L0,37.2 L0,42 L3.8,42 L60,4.8 Z" fill="#C8102E"></path>

    <!-- white cross -->
    <rect x="0" y="16" width="60" height="10" fill="#ffffff"></rect>
    <rect x="25" y="0" width="10" height="42" fill="#ffffff"></rect>

    <!-- red cross -->
    <rect x="0" y="18" width="60" height="6" fill="#C8102E"></rect>
    <rect x="27" y="0" width="6" height="42" fill="#C8102E"></rect>
  </g>
</svg>